<svg width="88" height="129" viewBox="0 0 88 129" fill="none" xmlns="http://www.w3.org/2000/svg">
<path d="M37.4089 94.0827C38.161 94.0827 38.8142 94.3612 39.3684 94.9183C39.883 95.4357 40.1404 96.0724 40.1404 96.8284V98.3207C40.1404 100.151 39.507 101.723 38.2402 103.036C36.9339 104.35 35.3504 105.006 33.4899 105.006H2.73145C1.93972 105.006 1.28655 104.747 0.771931 104.23C0.257311 103.673 1.05399e-07 103.016 7.25699e-08 102.26L0 100.589C-3.28294e-08 99.8329 0.25731 99.1962 0.771931 98.6789C1.28655 98.1218 1.93972 97.8432 2.73144 97.8432H32.3617C32.8763 97.8432 33.1336 97.6044 33.1336 97.1269V96.8284C33.1336 96.0724 33.3909 95.4357 33.9055 94.9183C34.4202 94.3612 35.0733 94.0827 35.8651 94.0827H37.4089Z" fill="#535B77"/>
<path d="M37.4089 0C38.161 -3.30975e-08 38.8142 0.278556 39.3684 0.835674C39.883 1.353 40.1404 1.98971 40.1404 2.7458V4.23807C40.1404 6.0686 39.507 7.64045 38.2402 8.95365C36.9339 10.2669 35.3504 10.9235 33.4899 10.9235L2.73144 10.9235C1.93972 10.9235 1.28655 10.6648 0.771931 10.1475C0.25731 9.59036 1.05399e-07 8.93376 7.25699e-08 8.17767L0 6.50633C-3.28294e-08 5.75024 0.25731 5.11352 0.77193 4.5962C1.28655 4.03908 1.93972 3.76053 2.73144 3.76053L32.3617 3.76053C32.8763 3.76053 33.1336 3.52178 33.1336 3.04425V2.7458C33.1336 1.98971 33.3909 1.353 33.9055 0.835674C34.4202 0.278557 35.0733 1.02776e-07 35.8651 6.7937e-08L37.4089 0Z" fill="#535B77"/>
<path d="M8.52854 110.306C9.32433 110.306 9.99447 110.58 10.539 111.127C11.0834 111.674 11.3557 112.348 11.3557 113.148L11.3557 120.663C11.3557 121.211 11.6489 121.484 12.2353 121.484H33.5332C34.329 121.484 35.02 121.779 35.6064 122.369C36.1509 122.916 36.4231 123.59 36.4231 124.39V126.158C36.4231 126.958 36.1509 127.632 35.6064 128.179C35.02 128.726 34.329 129 33.5332 129H10.9159C9.61752 129 8.44477 128.684 7.39767 128.053C6.30869 127.421 5.45008 126.579 4.82182 125.526C4.19356 124.474 3.87944 123.295 3.87944 121.99L3.87944 113.148C3.87944 112.348 4.17262 111.674 4.759 111.127C5.30349 110.58 5.99457 110.306 6.83224 110.306H8.52854Z" fill="#535B77"/>
<path d="M8.52853 41.9695C9.32433 41.9695 9.99447 42.2432 10.539 42.7906C11.0834 43.3379 11.3557 44.0116 11.3557 44.8115L11.3557 52.3271C11.3557 52.8744 11.6489 53.1481 12.2353 53.1481H33.5332C34.329 53.1481 35.02 53.4428 35.6064 54.0323C36.1509 54.5796 36.4231 55.2533 36.4231 56.0533V57.8216C36.4231 58.6216 36.1509 59.2952 35.6064 59.8426C35.02 60.3899 34.329 60.6636 33.5332 60.6636H10.9159C9.61751 60.6636 8.44477 60.3478 7.39767 59.7163C6.30869 59.0847 5.45007 58.2426 4.82182 57.1901C4.19356 56.1375 3.87943 54.9585 3.87943 53.6533L3.87943 44.8115C3.87943 44.0116 4.17262 43.3379 4.75899 42.7906C5.30348 42.2432 5.99456 41.9696 6.83224 41.9696L8.52853 41.9695Z" fill="#535B77"/>
<path d="M8.08875 15.9539L19.523 21.6378C19.9838 21.9326 20.4654 21.9326 20.968 21.6378L32.2766 16.017C33.24 15.5118 34.1614 15.5539 35.041 16.1433C35.9624 16.6907 36.4231 17.4906 36.4231 18.5432V20.5011C36.4231 21.68 35.8996 22.5431 34.8525 23.0904L29.261 25.8693C29.1354 25.9114 29.0725 26.0377 29.0725 26.2482C29.0725 26.4166 29.1354 26.5429 29.261 26.6272L34.8525 29.3428C35.8996 29.8902 36.4231 30.7744 36.4231 31.9954V33.9532C36.4231 35.0058 35.9624 35.8058 35.041 36.3531C34.1614 36.9005 33.24 36.9426 32.2766 36.4794L20.968 30.7954C20.4654 30.5849 19.9628 30.5849 19.4602 30.7954L8.08875 36.5426C7.12543 37.0057 6.18304 36.9636 5.2616 36.4163C4.34015 35.8268 3.87943 35.0058 3.87943 33.9532V31.9954C3.87943 31.4059 4.04697 30.9007 4.38204 30.4797C4.67522 30.0165 5.05218 29.6586 5.5129 29.406L11.1672 26.6272C11.2929 26.5429 11.3557 26.4166 11.3557 26.2482C11.3557 26.0377 11.2929 25.9114 11.1672 25.8693L5.5129 23.0273C5.05218 22.7747 4.67522 22.4378 4.38204 22.0168C4.04697 21.5537 3.87943 21.0484 3.87943 20.5011L3.87943 18.5432C3.87943 17.5328 4.34015 16.7117 5.2616 16.0802C6.18304 15.5328 7.12542 15.4907 8.08875 15.9539Z" fill="#535B77"/>
<path d="M29.3867 67.4193C31.3552 67.4193 33.0306 68.114 34.4127 69.5034C35.753 70.8507 36.4231 72.4928 36.4231 74.4296V83.2082C36.4231 85.145 35.753 86.8081 34.4127 88.1975C33.0306 89.5869 31.3552 90.2816 29.3867 90.2816H10.9159C9.61752 90.2816 8.44477 89.9658 7.39767 89.3343C6.30869 88.6606 5.45008 87.7975 4.82182 86.7449C4.19356 85.6923 3.87944 84.5134 3.87944 83.2082L3.87944 74.4296C3.87944 73.1243 4.19356 71.9454 4.82182 70.8928C5.45008 69.8402 6.30869 68.9982 7.39767 68.3666C8.44477 67.7351 9.61751 67.4193 10.9159 67.4193H29.3867ZM28.193 74.8716H12.2353C11.9839 74.8716 11.7745 74.9769 11.607 75.1874C11.4395 75.3558 11.3557 75.5453 11.3557 75.7558L11.3557 81.8819C11.3557 82.0924 11.4395 82.303 11.607 82.5135C11.7745 82.6819 11.984 82.7661 12.2353 82.7661H28.193C28.4024 82.7661 28.5909 82.6819 28.7584 82.5135C28.9259 82.303 29.0097 82.0924 29.0097 81.8819V75.7558C29.0097 75.5453 28.9259 75.3558 28.7584 75.1874C28.5909 74.9769 28.4024 74.8716 28.193 74.8716Z" fill="#535B77"/>
<path d="M65.0329 68.4936L60.7838 77.2308C60.5635 77.5828 60.5635 77.9509 60.7838 78.3349L64.9857 86.9762C65.3634 87.7123 65.332 88.4163 64.8913 89.0884C64.4821 89.7925 63.8841 90.1446 63.0972 90.1446H61.6336C60.7523 90.1446 60.1071 89.7445 59.6979 88.9444L57.6205 84.6718C57.589 84.5758 57.4946 84.5278 57.3372 84.5278C57.2113 84.5278 57.1169 84.5758 57.054 84.6718L55.0238 88.9444C54.6146 89.7445 53.9536 90.1446 53.0409 90.1446H51.5773C50.7904 90.1446 50.1924 89.7925 49.7832 89.0884C49.374 88.4163 49.3425 87.7123 49.6888 86.9762L53.9379 78.3349C54.0953 77.9509 54.0953 77.5668 53.9379 77.1828L49.6415 68.4936C49.2953 67.7575 49.3268 67.0374 49.736 66.3333C50.1766 65.6292 50.7904 65.2771 51.5773 65.2771H53.0409C53.4815 65.2771 53.8592 65.4051 54.174 65.6612C54.5202 65.8852 54.7877 66.1732 54.9766 66.5253L57.054 70.8459C57.1169 70.9419 57.2113 70.9899 57.3372 70.9899C57.4946 70.9899 57.589 70.9419 57.6205 70.8459L59.7451 66.5253C59.934 66.1732 60.1858 65.8852 60.5005 65.6612C60.8467 65.4051 61.2244 65.2771 61.6336 65.2771H63.0972C63.8526 65.2771 64.4664 65.6292 64.9385 66.3333C65.3477 67.0374 65.3792 67.7575 65.0329 68.4936Z" fill="#535B77"/>
<path d="M84.6742 68.4936L80.4251 77.2308C80.2048 77.5828 80.2048 77.9509 80.4251 78.3349L84.627 86.9762C85.0047 87.7123 84.9733 88.4163 84.5326 89.0884C84.1234 89.7925 83.5254 90.1446 82.7385 90.1446H81.2749C80.3936 90.1446 79.7484 89.7445 79.3392 88.9444L77.2618 84.6718C77.2303 84.5758 77.1359 84.5278 76.9785 84.5278C76.8526 84.5278 76.7582 84.5758 76.6953 84.6718L74.6651 88.9444C74.2559 89.7445 73.5949 90.1446 72.6822 90.1446H71.2186C70.4317 90.1446 69.8337 89.7925 69.4245 89.0884C69.0153 88.4163 68.9838 87.7123 69.3301 86.9762L73.5792 78.3349C73.7366 77.9509 73.7366 77.5668 73.5792 77.1828L69.2828 68.4936C68.9366 67.7575 68.9681 67.0374 69.3773 66.3333C69.8179 65.6292 70.4317 65.2771 71.2186 65.2771H72.6822C73.1228 65.2771 73.5005 65.4051 73.8153 65.6612C74.1615 65.8852 74.429 66.1732 74.6179 66.5253L76.6953 70.8459C76.7582 70.9419 76.8526 70.9899 76.9785 70.9899C77.1359 70.9899 77.2303 70.9419 77.2618 70.8459L79.3864 66.5253C79.5753 66.1732 79.8271 65.8852 80.1418 65.6612C80.488 65.4051 80.8657 65.2771 81.2749 65.2771H82.7385C83.4939 65.2771 84.1077 65.6292 84.5798 66.3333C84.989 67.0374 85.0205 67.7575 84.6742 68.4936Z" fill="#535B77"/>
<path fill-rule="evenodd" clip-rule="evenodd" d="M65.7262 68.8353L61.4589 77.6098L61.4369 77.645C61.3939 77.7137 61.3904 77.7519 61.3904 77.7709C61.3904 77.793 61.3959 77.8482 61.4522 77.9463L61.4654 77.9694L65.6756 86.6274C65.9128 87.0925 66.0392 87.5841 66.0165 88.0912C65.994 88.5956 65.8261 89.0675 65.547 89.4989C65.004 90.421 64.1613 90.9217 63.0972 90.9217H61.6336C61.0737 90.9217 60.5469 90.7933 60.0839 90.5062C59.6215 90.2195 59.2688 89.8032 59.0116 89.3001L59.0044 89.2861L57.3419 85.8666L55.7153 89.29L55.7101 89.3001C55.4505 89.8078 55.0909 90.2249 54.6189 90.5106C54.1479 90.7957 53.6114 90.9217 53.0408 90.9217H51.5772C50.5089 90.9217 49.6636 90.417 49.1209 89.4877C48.5741 88.585 48.5389 87.6049 48.9911 86.6436L48.9968 86.6313L53.2327 78.0174C53.301 77.8391 53.3011 77.6793 53.2329 77.501L48.9437 68.8262C48.4881 67.8576 48.5319 66.8661 49.0697 65.9409L49.0761 65.9298L49.0828 65.919C49.6562 65.0029 50.5094 64.5 51.5772 64.5H53.0408C53.6269 64.5 54.1679 64.6703 54.6255 65.0298C55.0614 65.3194 55.4091 65.6962 55.6558 66.156L55.6639 66.1712L57.3418 69.661L59.0593 66.1682L59.0659 66.156C59.3083 65.7041 59.6369 65.3254 60.0492 65.0307C60.5195 64.6846 61.0538 64.5 61.6336 64.5H63.0972C64.1424 64.5 64.9823 65.0097 65.5783 65.8985L65.5922 65.9192L65.6048 65.9409C66.1425 66.8661 66.1862 67.8576 65.7306 68.8261L65.7262 68.8353ZM60.5005 65.6612C60.1858 65.8852 59.934 66.1732 59.7451 66.5253L57.6205 70.8459C57.589 70.9419 57.4946 70.9899 57.3372 70.9899C57.2113 70.9899 57.1169 70.9419 57.054 70.8459L54.9766 66.5253C54.7877 66.1732 54.5202 65.8852 54.174 65.6612C53.8592 65.4051 53.4815 65.2771 53.0409 65.2771H51.5773C50.7904 65.2771 50.1766 65.6292 49.736 66.3333C49.3268 67.0374 49.2953 67.7575 49.6415 68.4936L53.9379 77.1828C54.0953 77.5668 54.0953 77.9509 53.9379 78.3349L49.6888 86.9762C49.3425 87.7123 49.374 88.4163 49.7832 89.0884C50.1924 89.7925 50.7904 90.1446 51.5773 90.1446H53.0409C53.9536 90.1446 54.6146 89.7445 55.0238 88.9444L57.054 84.6718C57.1169 84.5758 57.2113 84.5278 57.3372 84.5278C57.4946 84.5278 57.589 84.5758 57.6205 84.6718L59.6979 88.9444C60.1071 89.7445 60.7523 90.1446 61.6336 90.1446H63.0972C63.8841 90.1446 64.4821 89.7925 64.8913 89.0884C65.332 88.4163 65.3634 87.7123 64.9857 86.9762L60.7838 78.3349C60.5635 77.9509 60.5635 77.5828 60.7838 77.2308L65.0329 68.4936C65.3792 67.7575 65.3477 67.0374 64.9385 66.3333C64.4664 65.6292 63.8526 65.2771 63.0972 65.2771H61.6336C61.2244 65.2771 60.8467 65.4051 60.5005 65.6612ZM85.3675 68.8353L81.1002 77.6098L81.0782 77.645C81.0352 77.7137 81.0318 77.7519 81.0318 77.7709C81.0318 77.793 81.0373 77.8482 81.0935 77.9463L81.1068 77.9694L85.3169 86.6275C85.5542 87.0926 85.6805 87.5842 85.6578 88.0912C85.6353 88.5956 85.4674 89.0675 85.1883 89.4989C84.6454 90.421 83.8026 90.9217 82.7385 90.9217H81.2749C80.715 90.9217 80.1882 90.7933 79.7252 90.5062C79.2628 90.2195 78.9101 89.8032 78.6529 89.3001L78.6457 89.2861L76.9833 85.8666L75.3566 89.29L75.3514 89.3001C75.0918 89.8078 74.7322 90.2249 74.2602 90.5106C73.7892 90.7957 73.2527 90.9217 72.6822 90.9217H71.2186C70.1502 90.9217 69.3049 90.417 68.7622 89.4877C68.2154 88.585 68.1802 87.6049 68.6324 86.6436L68.6381 86.6313L72.874 78.0174C72.9423 77.8391 72.9424 77.6793 72.8743 77.501L68.585 68.8262C68.1294 67.8576 68.1732 66.8661 68.711 65.9409L68.7174 65.9298L68.7241 65.919C69.2975 65.0029 70.1507 64.5 71.2186 64.5H72.6822C73.2682 64.5 73.8092 64.6703 74.2668 65.0299C74.7027 65.3194 75.0504 65.6962 75.2971 66.156L75.3052 66.1712L76.9831 69.661L78.7007 66.1682L78.7072 66.156C78.9496 65.7041 79.2782 65.3254 79.6905 65.0307C80.1608 64.6846 80.6951 64.5 81.2749 64.5H82.7385C83.7837 64.5 84.6236 65.0097 85.2196 65.8985L85.2335 65.9192L85.2461 65.9409C85.7838 66.8661 85.8275 67.8576 85.3719 68.8261L85.3675 68.8353ZM80.1418 65.6612C79.8271 65.8852 79.5753 66.1732 79.3864 66.5253L77.2618 70.8459C77.2303 70.9419 77.1359 70.9899 76.9785 70.9899C76.8526 70.9899 76.7582 70.9419 76.6953 70.8459L74.6179 66.5253C74.429 66.1732 74.1615 65.8852 73.8153 65.6612C73.5005 65.4051 73.1228 65.2771 72.6822 65.2771H71.2186C70.4317 65.2771 69.8179 65.6292 69.3773 66.3333C68.9681 67.0374 68.9366 67.7575 69.2828 68.4936L73.5792 77.1828C73.7366 77.5668 73.7366 77.9509 73.5792 78.3349L69.3301 86.9762C68.9838 87.7123 69.0153 88.4163 69.4245 89.0884C69.8337 89.7925 70.4317 90.1446 71.2186 90.1446H72.6822C73.5949 90.1446 74.2559 89.7445 74.6651 88.9444L76.6953 84.6718C76.7582 84.5758 76.8526 84.5278 76.9785 84.5278C77.1359 84.5278 77.2303 84.5758 77.2618 84.6718L79.3392 88.9444C79.7484 89.7445 80.3936 90.1446 81.2749 90.1446H82.7385C83.5254 90.1446 84.1234 89.7925 84.5326 89.0884C84.9733 88.4163 85.0047 87.7123 84.627 86.9762L80.4251 78.3349C80.2048 77.9509 80.2048 77.5828 80.4251 77.2308L84.6742 68.4936C85.0205 67.7575 84.989 67.0374 84.5798 66.3333C84.1077 65.6292 83.4939 65.2771 82.7385 65.2771H81.2749C80.8657 65.2771 80.488 65.4051 80.1418 65.6612Z" fill="#535B77"/>
<path d="M85.2686 93.253C86.0207 93.253 86.6739 93.5316 87.2281 94.0887C87.7427 94.606 88 95.2427 88 95.9988V97.4911C88 99.3216 87.3666 100.893 86.0999 102.207C84.7935 103.52 83.2101 104.177 81.3495 104.177H50.5911C49.7994 104.177 49.1462 103.918 48.6316 103.401C48.117 102.843 47.8596 102.187 47.8596 101.431V99.7594C47.8596 99.0033 48.117 98.3666 48.6316 97.8493C49.1462 97.2921 49.7994 97.0136 50.5911 97.0136H80.2213C80.7359 97.0136 80.9933 96.7748 80.9933 96.2973V95.9988C80.9933 95.2427 81.2506 94.606 81.7652 94.0887C82.2798 93.5316 82.933 93.253 83.7247 93.253H85.2686Z" fill="#535B77"/>
<path d="M78.9195 108.795C80.2898 108.795 81.5459 109.137 82.6878 109.819C83.8298 110.502 84.7433 111.413 85.4284 112.551C86.1136 113.689 86.4561 114.941 86.4561 116.306V126.382C86.4561 127.103 86.2087 127.729 85.7139 128.26C85.181 128.753 84.553 129 83.8298 129H50.486C49.7248 129 49.0967 128.753 48.6019 128.26C48.1071 127.729 47.8596 127.103 47.8596 126.382V116.306C47.8596 114.941 48.2022 113.689 48.8874 112.551C49.5725 111.413 50.486 110.502 51.6279 109.819C52.7699 109.137 54.045 108.795 55.4533 108.795H78.9195ZM78.9195 115.567H55.4533C54.9204 115.567 54.654 115.813 54.654 116.306V121.432C54.654 121.925 54.9014 122.172 55.3962 122.172H78.9766C79.4715 122.172 79.7189 121.925 79.7189 121.432V116.306C79.7189 116.117 79.6427 115.946 79.4905 115.794C79.3002 115.643 79.1099 115.567 78.9195 115.567Z" fill="#535B77"/>
</svg>
