<svg xmlns="http://www.w3.org/2000/svg" width="49" height="49" fill="none" viewBox="0 0 49 49"><circle cx="24.5" cy="24.5" r="24.5" fill="#fff"/><path fill="#9199B5" d="M20.055 5.778l15.167 8.944-11.278 6.222L8.777 12l11.278-6.222z"/><path fill="#535B77" d="M20.445 34.555l14-7.777v-10.89l-14 7.779v10.888z"/><path fill="#fff" d="M8.777 16.667l15.167 8.944v-4.667L8.777 12v4.667z"/><path fill="#535B77" d="M19.667 6.556L34.834 15.5v28l-15.167-8.944v-28z"/><path fill="#535B77" fill-rule="evenodd" d="M19.28 5.88a.778.778 0 0 1 .782.006l15.166 8.944c.237.14.383.395.383.67v28a.778.778 0 0 1-1.173.67l-15.167-8.945a.778.778 0 0 1-.382-.67v-28c0-.279.15-.536.392-.675zm1.164 2.037v26.194l13.611 8.027V15.944l-13.61-8.027z" clip-rule="evenodd"/><path fill="#9199B5" d="M34.834 26.778V43.5l-15.167-8.945 15.167-7.777z"/><path fill="#535B77" fill-rule="evenodd" d="M19.28 5.88a.778.778 0 0 1 .782.006l15.166 8.944c.237.14.383.395.383.67v28a.778.778 0 0 1-1.173.67l-15.167-8.945a.778.778 0 0 1-.382-.67v-28c0-.279.15-.536.392-.675zm1.164 2.037v26.194l13.611 8.027V15.944l-13.61-8.027z" clip-rule="evenodd"/><path fill="#fff" d="M8.777 16.667l15.167 8.944v-4.667L8.777 12v4.667z"/><path fill="#535B77" d="M23.944 25.61l11.278-6.221v-4.667l-11.278 6.222v4.667z"/><path fill="#fff" d="M20.055 5.778l15.167 8.944-11.278 6.222L8.777 12l11.278-6.222z"/><path fill="#535B77" fill-rule="evenodd" d="M23.167 25.611v-4.667h1.555v4.667h-1.555z" clip-rule="evenodd"/><path fill="#535B77" fill-rule="evenodd" d="M8.108 11.605a.778.778 0 0 1 1.065-.275l3.111 1.835a.778.778 0 0 1-.79 1.34L8.383 12.67a.778.778 0 0 1-.275-1.065zm5.935 3.5a.778.778 0 0 1 1.065-.275l9.232 5.444a.778.778 0 0 1-.79 1.34l-9.232-5.444a.778.778 0 0 1-.275-1.065z" clip-rule="evenodd"/><path fill="#535B77" fill-rule="evenodd" d="M23.569 20.263l11.277-6.222.752 1.362-11.278 6.222-.751-1.362z" clip-rule="evenodd"/><path fill="#535B77" fill-rule="evenodd" d="M19.68 5.097a.778.778 0 0 1 .77.01l15.167 8.945c.238.14.383.395.383.67v4.667a.778.778 0 0 1-.402.68L24.32 26.293a.778.778 0 0 1-.77-.011L8.382 17.337a.778.778 0 0 1-.383-.67V12c0-.283.154-.544.402-.681L19.68 5.097zM9.556 12.459v3.763l14.401 8.494 10.487-5.786v-3.764L20.043 6.673 9.556 12.46z" clip-rule="evenodd"/></svg>