<svg width="57" height="83" viewBox="0 0 57 83" fill="none" xmlns="http://www.w3.org/2000/svg">
<path d="M24.2308 60.5337C24.718 60.5337 25.141 60.713 25.5 61.0714C25.8333 61.4043 26 61.8139 26 62.3004L26 63.2606C26 64.4383 25.5897 65.4497 24.7692 66.2946C23.9231 67.1395 22.8974 67.562 21.6923 67.562L1.76923 67.562C1.25641 67.562 0.833334 67.3956 0.500001 67.0627C0.166667 66.7043 -5.59591e-08 66.2818 -7.72236e-08 65.7953L-1.24229e-07 64.72C-1.45494e-07 64.2335 0.166667 63.8238 0.5 63.491C0.833334 63.1325 1.25641 62.9533 1.76923 62.9533L20.9615 62.9533C21.2949 62.9533 21.4615 62.7997 21.4615 62.4924L21.4615 62.3004C21.4615 61.8139 21.6282 61.4043 21.9615 61.0714C22.2949 60.713 22.718 60.5337 23.2308 60.5337L24.2308 60.5337Z" fill="white"/>
<path d="M24.2308 4.47172e-05C24.718 4.46959e-05 25.141 0.179271 25.5 0.537726C25.8333 0.870577 26 1.28025 26 1.76672L26 2.72687C26 3.90465 25.5897 4.91599 24.7692 5.76092C23.9231 6.60585 22.8974 7.02832 21.6923 7.02832L1.76923 7.02832C1.25641 7.02832 0.833334 6.8619 0.5 6.52905C0.166667 6.17059 -5.59591e-08 5.74812 -7.72236e-08 5.26165L-1.24229e-07 4.18629C-1.45494e-07 3.69981 0.166667 3.29014 0.5 2.95729C0.833334 2.59884 1.25641 2.41961 1.76923 2.41961L20.9615 2.41961C21.2949 2.41961 21.4615 2.26599 21.4615 1.95875L21.4615 1.76672C21.4615 1.28025 21.6282 0.870577 21.9615 0.537726C22.2949 0.179271 22.718 4.47833e-05 23.2308 4.47609e-05L24.2308 4.47172e-05Z" fill="white"/>
<path d="M5.52417 70.9719C6.03962 70.9719 6.47369 71.148 6.82637 71.5002C7.17905 71.8523 7.35539 72.2858 7.35539 72.8005L7.35539 77.6361C7.35539 77.9882 7.5453 78.1643 7.92511 78.1643L21.7203 78.1643C22.2358 78.1643 22.6834 78.3539 23.0632 78.7332C23.4159 79.0854 23.5923 79.5188 23.5923 80.0335L23.5923 81.1713C23.5923 81.686 23.4159 82.1195 23.0632 82.4716C22.6834 82.8238 22.2358 82.9999 21.7203 82.9999L7.07053 82.9999C6.22953 82.9999 5.46991 82.7967 4.79168 82.3904C4.08631 81.984 3.53016 81.4422 3.12323 80.765C2.71629 80.0877 2.51282 79.3292 2.51282 78.4894L2.51282 72.8005C2.51282 72.2858 2.70272 71.8523 3.08253 71.5002C3.43521 71.148 3.88284 70.9719 4.42543 70.9719L5.52417 70.9719Z" fill="white"/>
<path d="M5.52416 27.0035C6.03962 27.0035 6.47369 27.1796 6.82637 27.5318C7.17905 27.8839 7.35539 28.3174 7.35539 28.8321L7.35539 33.6677C7.35539 34.0198 7.5453 34.1959 7.92511 34.1959L21.7203 34.1959C22.2358 34.1959 22.6834 34.3856 23.0632 34.7648C23.4159 35.117 23.5923 35.5504 23.5923 36.0651L23.5923 37.2029C23.5923 37.7176 23.4159 38.1511 23.0632 38.5032C22.6834 38.8554 22.2358 39.0315 21.7203 39.0315L7.07053 39.0315C6.22953 39.0315 5.46991 38.8283 4.79167 38.422C4.08631 38.0156 3.53016 37.4738 3.12322 36.7966C2.71628 36.1193 2.51282 35.3608 2.51282 34.521L2.51282 28.8321C2.51281 28.3174 2.70272 27.884 3.08253 27.5318C3.43521 27.1796 3.88284 27.0035 4.42543 27.0035L5.52416 27.0035Z" fill="white"/>
<path d="M5.23931 10.2647L12.6456 13.9219C12.944 14.1115 13.256 14.1115 13.5816 13.9219L20.9065 10.3054C21.5304 9.98029 22.1273 10.0074 22.697 10.3867C23.2938 10.7388 23.5923 11.2535 23.5923 11.9308L23.5923 13.1905C23.5923 13.949 23.2531 14.5043 22.5749 14.8565L18.9532 16.6444C18.8718 16.6715 18.8311 16.7528 18.8311 16.8883C18.8311 16.9966 18.8718 17.0779 18.9532 17.1321L22.5749 18.8794C23.2531 19.2315 23.5923 19.8004 23.5923 20.586L23.5923 21.8457C23.5923 22.523 23.2938 23.0377 22.697 23.3899C22.1273 23.742 21.5304 23.7691 20.9065 23.4711L13.5816 19.814C13.256 19.6785 12.9305 19.6785 12.6049 19.814L5.23931 23.5118C4.61533 23.8098 4.00492 23.7827 3.40808 23.4305C2.81124 23.0512 2.51281 22.523 2.51281 21.8457L2.51281 20.586C2.51281 20.2068 2.62133 19.8817 2.83836 19.6108C3.02827 19.3128 3.27243 19.0825 3.57085 18.92L7.23331 17.1321C7.3147 17.0779 7.35539 16.9966 7.35539 16.8883C7.35539 16.7528 7.3147 16.6715 7.23331 16.6444L3.57085 14.8159C3.27243 14.6533 3.02827 14.4366 2.83836 14.1657C2.62133 13.8677 2.51281 13.5426 2.51281 13.1905L2.51281 11.9308C2.51281 11.2806 2.81124 10.7524 3.40808 10.346C4.00492 9.99385 4.61533 9.96676 5.23931 10.2647Z" fill="white"/>
<path d="M19.0345 43.3783C20.3096 43.3783 21.3948 43.8252 22.2901 44.7192C23.1582 45.5861 23.5923 46.6426 23.5923 47.8887L23.5923 53.537C23.5923 54.7832 23.1582 55.8532 22.2901 56.7472C21.3948 57.6411 20.3096 58.0881 19.0345 58.0881L7.07053 58.0881C6.22953 58.0881 5.46991 57.885 4.79168 57.4786C4.08631 57.0452 3.53016 56.4898 3.12323 55.8126C2.71629 55.1353 2.51282 54.3768 2.51282 53.537L2.51282 47.8887C2.51282 47.049 2.71629 46.2904 3.12322 45.6132C3.53016 44.9359 4.08631 44.3941 4.79167 43.9878C5.46991 43.5814 6.22953 43.3783 7.07053 43.3783L19.0345 43.3783ZM18.2614 48.1732L7.92511 48.1732C7.76233 48.1732 7.62669 48.2409 7.51817 48.3764C7.40965 48.4847 7.35539 48.6066 7.35539 48.7421L7.35539 52.6837C7.35539 52.8191 7.40965 52.9546 7.51817 53.09C7.62669 53.1984 7.76233 53.2526 7.92511 53.2526L18.2614 53.2526C18.397 53.2526 18.5191 53.1984 18.6276 53.09C18.7361 52.9546 18.7904 52.8191 18.7904 52.6837L18.7904 48.7421C18.7904 48.6066 18.7361 48.4847 18.6276 48.3764C18.5191 48.2409 18.397 48.1732 18.2614 48.1732Z" fill="white"/>
<path d="M42.3481 44.1794L42.3482 44.1794L42.3496 44.1765C42.6092 43.6281 42.5849 43.0775 42.2782 42.5533L42.2742 42.5463L42.2697 42.5397C41.9237 42.0272 41.4529 41.75 40.8698 41.75H39.9218C39.6015 41.75 39.3061 41.8506 39.0417 42.0443C38.8062 42.2112 38.6182 42.4256 38.4786 42.6843L38.4784 42.6842L38.4745 42.6922L37.1394 45.3892L35.8349 42.6942L35.8351 42.6941L35.8298 42.6843C35.6888 42.4231 35.4895 42.2092 35.2363 42.0441C34.9861 41.8459 34.6884 41.75 34.356 41.75H33.408C32.8073 41.75 32.3322 42.025 32.0038 42.5463L32.0037 42.5462L31.9996 42.5533C31.6929 43.0775 31.6686 43.6281 31.9282 44.1765L31.9282 44.1765L31.9304 44.1809L34.7091 49.7632C34.7817 49.944 34.7817 50.118 34.709 50.2988L31.9607 55.8505L31.9607 55.8505L31.9588 55.8544C31.7002 56.4005 31.7218 56.9423 32.0314 57.4489C32.3397 57.9743 32.8071 58.25 33.408 58.25H34.356C34.6886 58.25 34.9898 58.1773 35.2494 58.0212C35.5092 57.865 35.7124 57.6343 35.8627 57.3422L35.8628 57.3423L35.8659 57.3357L37.1394 54.6735L38.4434 57.3377L38.4434 57.3377L38.4457 57.3422C38.5953 57.6328 38.7948 57.8632 39.0491 58.0198C39.3035 58.1765 39.5977 58.25 39.9218 58.25H40.8698C41.4693 58.25 41.936 57.9756 42.2442 57.4525C42.4059 57.2057 42.4986 56.9432 42.511 56.6676C42.5234 56.3911 42.4544 56.1171 42.3164 55.8491L39.5959 50.2916L39.5921 50.2839L39.5878 50.2765C39.5339 50.1832 39.5143 50.1049 39.5143 50.0386C39.5143 49.9733 39.5332 49.9031 39.5828 49.8244L39.59 49.8131L39.5958 49.801L42.3481 44.1794ZM55.0704 44.1794L55.0704 44.1794L55.0718 44.1765C55.3314 43.6281 55.3071 43.0775 55.0004 42.5533L54.9964 42.5463L54.9919 42.5397C54.646 42.0272 54.1752 41.75 53.592 41.75H52.644C52.3237 41.75 52.0283 41.8506 51.7639 42.0443C51.5284 42.2112 51.3404 42.4256 51.2008 42.6843L51.2006 42.6842L51.1967 42.6922L49.8616 45.3892L48.5571 42.6942L48.5573 42.6941L48.552 42.6843C48.411 42.4231 48.2117 42.2092 47.9586 42.0441C47.7084 41.8459 47.4106 41.75 47.0782 41.75H46.1302C45.5295 41.75 45.0544 42.025 44.726 42.5463L44.7259 42.5462L44.7218 42.5533C44.4151 43.0775 44.3908 43.6281 44.6504 44.1765L44.6504 44.1765L44.6526 44.1809L47.4313 49.7632C47.5039 49.944 47.5039 50.118 47.4312 50.2988L44.6829 55.8505L44.6829 55.8505L44.681 55.8544C44.4224 56.4005 44.444 56.9423 44.7536 57.4489C45.0619 57.9743 45.5294 58.25 46.1302 58.25H47.0782C47.4108 58.25 47.712 58.1773 47.9716 58.0212C48.2315 57.865 48.4346 57.6343 48.5849 57.3422L48.585 57.3423L48.5882 57.3357L49.8616 54.6735L51.1656 57.3377L51.1656 57.3377L51.1679 57.3422C51.3175 57.6328 51.517 57.8632 51.7713 58.0198C52.0257 58.1765 52.3199 58.25 52.644 58.25H53.592C54.1915 58.25 54.6582 57.9756 54.9665 57.4525C55.1281 57.2057 55.2208 56.9432 55.2332 56.6676C55.2456 56.3911 55.1766 56.1171 55.0386 55.8491L52.3181 50.2916L52.3143 50.2839L52.31 50.2765C52.2561 50.1832 52.2365 50.1049 52.2365 50.0386C52.2365 49.9733 52.2555 49.9031 52.305 49.8244L52.3122 49.8131L52.3181 49.8011L55.0704 44.1794Z" fill="white" stroke="white" stroke-width="0.5"/>
<path d="M55.2308 59.9999C55.718 59.9999 56.141 60.1791 56.5 60.5376C56.8333 60.8705 57 61.2801 57 61.7666L57 62.7267C57 63.9045 56.5897 64.9159 55.7692 65.7608C54.9231 66.6057 53.8974 67.0282 52.6923 67.0282L32.7692 67.0282C32.2564 67.0282 31.8333 66.8618 31.5 66.5289C31.1667 66.1705 31 65.748 31 65.2615L31 64.1862C31 63.6997 31.1667 63.29 31.5 62.9572C31.8333 62.5987 32.2564 62.4195 32.7692 62.4195L51.9615 62.4195C52.2949 62.4195 52.4615 62.2659 52.4615 61.9586L52.4615 61.7666C52.4615 61.2801 52.6282 60.8705 52.9615 60.5376C53.2949 60.1791 53.718 59.9999 54.2308 59.9999L55.2308 59.9999Z" fill="white"/>
<path d="M51.1183 69.9999C52.0059 69.9999 52.8195 70.2195 53.5592 70.6589C54.2988 71.0982 54.8905 71.684 55.3343 72.4163C55.7781 73.1485 56 73.954 56 74.8327L56 81.3157C56 81.7795 55.8397 82.1822 55.5192 82.5239C55.1741 82.8412 54.7673 82.9999 54.2988 82.9999L32.7012 82.9999C32.2081 82.9999 31.8013 82.8412 31.4808 82.5239C31.1603 82.1822 31 81.7795 31 81.3157L31 74.8327C31 73.954 31.2219 73.1485 31.6657 72.4163C32.1095 71.684 32.7012 71.0982 33.4408 70.6589C34.1805 70.2195 35.0064 69.9999 35.9186 69.9999L51.1183 69.9999ZM51.1183 74.3567L35.9186 74.3567C35.5735 74.3567 35.4009 74.5154 35.4009 74.8327L35.4009 78.1305C35.4009 78.4478 35.5611 78.6064 35.8817 78.6064L51.1553 78.6064C51.4758 78.6064 51.6361 78.4478 51.6361 78.1305L51.6361 74.8327C51.6361 74.7106 51.5868 74.6008 51.4882 74.5031C51.3649 74.4055 51.2416 74.3567 51.1183 74.3567Z" fill="white"/>
</svg>
