<svg xmlns="http://www.w3.org/2000/svg" width="93" height="274" fill="none" viewBox="0 0 93 274"><path fill="#E55E43" d="M36.667 154.889L84.334 183v88l-47.667-28.111v-88z"/><path fill="#9199B5" d="M36.667 154.889L84.334 183v88l-47.667-28.111v-88z"/><path fill="#535B77" fill-rule="evenodd" d="M35.454 152.766a2.447 2.447 0 0 1 2.454.017l47.666 28.111A2.446 2.446 0 0 1 86.778 183v87.999a2.444 2.444 0 0 1-3.686 2.106l-47.666-28.111a2.445 2.445 0 0 1-1.203-2.106v-87.999c0-.877.47-1.687 1.232-2.123zm3.657 6.402v82.324l42.777 25.228v-82.324l-42.777-25.228z" clip-rule="evenodd"/><path fill="#9199B5" d="M37.888 152.445l47.666 28.111-35.444 19.555L2.443 172l35.445-19.555z"/><path fill="#535B77" d="M50.11 214.777l35.445-19.555v-14.667l-35.444 19.556v14.666z"/><path fill="#9199B5" d="M2.443 186.666l47.667 28.111v-14.666L2.443 172v14.666z"/><path fill="#fff" d="M37.888 152.445l47.666 28.111-35.444 19.555L2.443 172l35.445-19.555z"/><path fill="#535B77" d="M39.111 242.888l44-24.444v-34.222l-44 24.444v34.222z"/><path fill="#fff" d="M2.443 186.666l47.667 28.111v-14.666L2.443 172v14.666z"/><path fill="#535B77" fill-rule="evenodd" d="M36.708 150.304a2.446 2.446 0 0 1 2.423.035l47.666 28.111A2.443 2.443 0 0 1 88 180.555v14.667c0 .89-.484 1.71-1.264 2.14l-35.444 19.556a2.446 2.446 0 0 1-2.422-.035L1.203 188.772A2.445 2.445 0 0 1 0 186.666V172c0-.89.485-1.71 1.264-2.14l35.444-19.556zM4.89 173.443v11.827l45.263 26.693 32.96-18.184v-11.827L37.85 155.258 4.89 173.443z" clip-rule="evenodd"/><path fill="#535B77" fill-rule="evenodd" d="M47.667 214.777v-14.666h4.89v14.666h-4.89z" clip-rule="evenodd"/><path fill="#535B77" fill-rule="evenodd" d="M.34 170.758a2.444 2.444 0 0 1 3.347-.864l9.777 5.766a2.445 2.445 0 0 1-2.483 4.211l-9.778-5.766a2.444 2.444 0 0 1-.864-3.347zm18.651 11a2.444 2.444 0 0 1 3.348-.864l29.014 17.111a2.444 2.444 0 1 1-2.484 4.211l-29.014-17.111a2.444 2.444 0 0 1-.864-3.347z" clip-rule="evenodd"/><path fill="#535B77" fill-rule="evenodd" d="M48.93 197.97l35.444-19.555 2.362 4.28-35.444 19.556-2.362-4.281z" clip-rule="evenodd"/><path fill="#535B77" d="M42.409 94.083c.752 0 1.405.278 1.96.835.514.518.771 1.154.771 1.91v1.493c0 1.83-.633 3.402-1.9 4.715-1.306 1.314-2.89 1.97-4.75 1.97H7.73c-.791 0-1.444-.259-1.96-.776a2.808 2.808 0 0 1-.77-1.97v-1.671c0-.756.257-1.393.772-1.91.515-.557 1.168-.836 1.96-.836h29.63c.514 0 .772-.239.772-.716v-.299c0-.756.257-1.392.772-1.91.514-.557 1.167-.835 1.96-.835h1.543zm0-94.083c.752 0 1.405.279 1.96.836.514.517.771 1.154.771 1.91v1.492c0 1.83-.633 3.402-1.9 4.716-1.306 1.313-2.89 1.97-4.75 1.97H7.73c-.791 0-1.444-.26-1.96-.776A2.808 2.808 0 0 1 5 8.178V6.506c0-.756.257-1.392.772-1.91.515-.557 1.168-.835 1.96-.835h29.63c.514 0 .772-.24.772-.717v-.298c0-.756.257-1.393.772-1.91C39.42.279 40.073 0 40.866 0h1.543zM13.528 110.306c.796 0 1.466.274 2.011.821.544.547.817 1.221.817 2.021v7.515c0 .548.293.821.88.821h21.297c.796 0 1.487.295 2.073.885.545.547.817 1.221.817 2.021v1.768c0 .8-.272 1.474-.817 2.021a2.94 2.94 0 0 1-2.073.821H15.916c-1.299 0-2.471-.316-3.518-.947a7.081 7.081 0 0 1-2.576-2.527c-.628-1.052-.943-2.231-.943-3.536v-8.842c0-.8.294-1.474.88-2.021.544-.547 1.236-.821 2.073-.821h1.696zm0-68.336c.796 0 1.466.273 2.011.82.544.548.817 1.222.817 2.022v7.515c0 .547.293.821.88.821h21.297c.796 0 1.487.295 2.073.884.545.548.817 1.221.817 2.021v1.769c0 .8-.272 1.473-.817 2.02a2.938 2.938 0 0 1-2.073.822H15.916c-1.299 0-2.471-.316-3.518-.948a7.08 7.08 0 0 1-2.576-2.526c-.628-1.052-.943-2.231-.943-3.537v-8.841c0-.8.294-1.474.88-2.021.544-.548 1.236-.821 2.073-.821h1.696zm-.439-26.016l11.434 5.684c.46.295.942.295 1.445 0l11.309-5.621c.963-.505 1.884-.463 2.764.126.921.548 1.382 1.348 1.382 2.4v1.958c0 1.179-.523 2.042-1.57 2.59l-5.592 2.778c-.126.042-.189.169-.189.38 0 .168.063.294.189.378l5.591 2.716c1.048.547 1.571 1.431 1.571 2.652v1.958c0 1.053-.46 1.853-1.382 2.4-.88.547-1.801.59-2.764.126l-11.309-5.684a1.879 1.879 0 0 0-1.508 0l-11.37 5.748c-.964.463-1.906.42-2.827-.127-.922-.59-1.383-1.41-1.383-2.463v-1.958c0-.59.168-1.094.503-1.515a3.08 3.08 0 0 1 1.13-1.074l5.655-2.779a.426.426 0 0 0 .189-.379c0-.21-.063-.337-.189-.379l-5.654-2.842a3.277 3.277 0 0 1-1.131-1.01 2.531 2.531 0 0 1-.503-1.516v-1.958c0-1.01.461-1.831 1.383-2.463.921-.547 1.863-.59 2.827-.126zM34.387 67.42c1.968 0 3.644.694 5.026 2.083 1.34 1.348 2.01 2.99 2.01 4.927v8.778c0 1.937-.67 3.6-2.01 4.99-1.382 1.389-3.058 2.084-5.026 2.084H15.916c-1.299 0-2.471-.316-3.518-.948a7.58 7.58 0 0 1-2.576-2.59c-.628-1.052-.943-2.23-.943-3.536V74.43c0-1.306.315-2.485.943-3.537a7.08 7.08 0 0 1 2.576-2.526c1.047-.632 2.22-.948 3.518-.948h18.47zm-1.194 7.452H17.235a.772.772 0 0 0-.628.315.787.787 0 0 0-.251.569v6.126c0 .21.083.421.251.631a.85.85 0 0 0 .628.253h15.958a.78.78 0 0 0 .565-.253c.168-.21.252-.42.252-.631v-6.126a.79.79 0 0 0-.252-.569c-.167-.21-.356-.315-.565-.315zm36.84-6.378l-4.25 8.737c-.22.352-.22.72 0 1.104l4.203 8.641c.377.736.346 1.44-.095 2.112-.409.705-1.007 1.057-1.794 1.057h-1.463c-.882 0-1.527-.4-1.936-1.2l-2.077-4.273c-.032-.096-.126-.144-.284-.144a.316.316 0 0 0-.283.144l-2.03 4.272c-.41.8-1.07 1.2-1.983 1.2h-1.464c-.787 0-1.385-.352-1.794-1.056-.409-.672-.44-1.376-.094-2.112l4.249-8.641a1.465 1.465 0 0 0 0-1.152l-4.297-8.69c-.346-.736-.314-1.456.095-2.16.44-.704 1.054-1.056 1.841-1.056h1.464c.44 0 .818.128 1.133.384.346.224.614.512.803.864l2.077 4.32a.316.316 0 0 0 .283.145c.158 0 .252-.048.283-.144l2.125-4.32c.189-.353.44-.64.755-.865a1.865 1.865 0 0 1 1.134-.384h1.463c.756 0 1.37.352 1.842 1.056.409.704.44 1.424.094 2.16zm19.641 0l-4.249 8.737c-.22.352-.22.72 0 1.104l4.202 8.641c.378.736.346 1.44-.094 2.112-.41.705-1.008 1.057-1.794 1.057h-1.464c-.881 0-1.527-.4-1.936-1.2l-2.077-4.273c-.032-.096-.126-.144-.284-.144a.316.316 0 0 0-.283.144l-2.03 4.272c-.41.8-1.07 1.2-1.983 1.2H76.22c-.787 0-1.385-.352-1.794-1.056-.41-.672-.441-1.376-.095-2.112l4.25-8.641a1.465 1.465 0 0 0 0-1.152l-4.297-8.69c-.346-.736-.315-1.456.094-2.16.44-.704 1.055-1.056 1.842-1.056h1.463c.44 0 .819.128 1.133.384.347.224.614.512.803.864l2.077 4.32a.316.316 0 0 0 .284.145c.157 0 .251-.048.283-.144l2.124-4.32a2.5 2.5 0 0 1 .756-.865 1.865 1.865 0 0 1 1.133-.384h1.463c.756 0 1.37.352 1.842 1.056.409.704.44 1.424.094 2.16z"/><path fill="#535B77" fill-rule="evenodd" d="M70.726 68.835L66.46 77.61l-.022.035c-.043.069-.047.107-.047.126a.37.37 0 0 0 .062.175l.013.023 4.21 8.658c.238.466.364.957.341 1.464-.022.505-.19.977-.469 1.408-.543.922-1.386 1.423-2.45 1.423h-1.463c-.56 0-1.087-.129-1.55-.416-.463-.287-.815-.703-1.072-1.206l-.008-.014-1.662-3.42-1.627 3.424-.005.01c-.26.508-.62.925-1.091 1.21-.471.286-1.008.412-1.578.412h-1.464c-1.068 0-1.913-.505-2.456-1.434-.547-.903-.582-1.883-.13-2.844l.006-.013 4.236-8.614a.677.677 0 0 0 0-.516l-4.29-8.675c-.455-.968-.411-1.96.127-2.885l.006-.011.007-.011c.573-.916 1.426-1.419 2.494-1.419h1.464c.586 0 1.127.17 1.585.53a3.1 3.1 0 0 1 1.03 1.126l.008.015 1.678 3.49 1.717-3.493.007-.012a3.26 3.26 0 0 1 .983-1.125 2.632 2.632 0 0 1 1.585-.531h1.463c1.045 0 1.885.51 2.481 1.398l.014.021.013.022c.537.925.581 1.917.126 2.885l-.005.01zm-5.225-3.174a2.486 2.486 0 0 0-.756.864l-2.125 4.32c-.031.097-.125.145-.283.145a.316.316 0 0 1-.283-.144l-2.077-4.32a2.328 2.328 0 0 0-.803-.865 1.739 1.739 0 0 0-1.133-.384h-1.464c-.787 0-1.4.352-1.841 1.056-.41.704-.44 1.424-.094 2.16l4.296 8.69c.157.384.157.768 0 1.152l-4.25 8.641c-.346.736-.314 1.44.095 2.112.41.705 1.007 1.057 1.794 1.057h1.464c.913 0 1.574-.4 1.983-1.2l2.03-4.273a.316.316 0 0 1 .283-.144c.158 0 .252.048.283.144l2.078 4.272c.41.8 1.054 1.2 1.936 1.2h1.463c.787 0 1.385-.352 1.794-1.056.441-.672.472-1.376.095-2.112l-4.202-8.641c-.22-.384-.22-.752 0-1.104l4.249-8.737c.346-.737.315-1.457-.094-2.16-.473-.705-1.086-1.057-1.842-1.057h-1.463c-.41 0-.787.128-1.133.384zm24.867 3.174L86.1 77.61l-.022.035c-.043.069-.046.107-.046.126 0 .022.005.077.062.175l.013.023 4.21 8.659c.237.465.364.956.34 1.463-.022.505-.19.977-.469 1.408-.543.922-1.385 1.423-2.45 1.423h-1.463c-.56 0-1.087-.129-1.55-.416-.462-.287-.815-.703-1.072-1.206l-.007-.014-1.663-3.42-1.626 3.424-.006.01c-.26.508-.619.925-1.09 1.21-.472.286-1.008.412-1.579.412H76.22c-1.069 0-1.914-.505-2.457-1.434-.547-.903-.582-1.883-.13-2.844l.006-.013 4.236-8.614a.677.677 0 0 0 0-.516l-4.289-8.675c-.456-.968-.412-1.96.126-2.885l.006-.011.007-.011c.573-.916 1.427-1.419 2.495-1.419h1.463c.586 0 1.127.17 1.585.53.436.29.783.666 1.03 1.126l.008.015 1.678 3.49 1.718-3.493.006-.012a3.26 3.26 0 0 1 .984-1.125 2.632 2.632 0 0 1 1.584-.531h1.463c1.046 0 1.886.51 2.482 1.398l.014.021.012.022c.538.925.582 1.917.126 2.885l-.004.01zm-5.226-3.174a2.486 2.486 0 0 0-.756.864l-2.124 4.32c-.032.097-.126.145-.284.145a.316.316 0 0 1-.283-.144l-2.077-4.32a2.328 2.328 0 0 0-.803-.865 1.739 1.739 0 0 0-1.133-.384H76.22c-.787 0-1.401.352-1.842 1.056-.409.704-.44 1.424-.094 2.16l4.296 8.69a1.46 1.46 0 0 1 0 1.152l-4.249 8.641c-.346.736-.315 1.44.094 2.112.41.705 1.008 1.057 1.795 1.057h1.463c.913 0 1.574-.4 1.983-1.2l2.03-4.273a.316.316 0 0 1 .284-.144c.157 0 .251.048.283.144l2.077 4.272c.41.8 1.055 1.2 1.936 1.2h1.463c.787 0 1.385-.352 1.795-1.056.44-.672.472-1.376.094-2.112l-4.202-8.641c-.22-.384-.22-.752 0-1.104l4.25-8.737c.346-.737.314-1.457-.095-2.16-.472-.705-1.086-1.057-1.841-1.057h-1.464c-.41 0-.787.128-1.133.384z" clip-rule="evenodd"/><path fill="#535B77" d="M90.269 93.253c.752 0 1.405.279 1.96.836.514.517.771 1.154.771 1.91v1.492c0 1.83-.633 3.402-1.9 4.716-1.306 1.313-2.89 1.97-4.75 1.97H55.59c-.792 0-1.445-.259-1.96-.776a2.81 2.81 0 0 1-.771-1.97v-1.672c0-.756.257-1.392.772-1.91.514-.557 1.167-.835 1.96-.835h29.63c.514 0 .771-.24.771-.717V96c0-.756.258-1.393.772-1.91.515-.557 1.168-.836 1.96-.836h1.544zm-6.349 15.542c1.37 0 2.626.342 3.768 1.024a7.862 7.862 0 0 1 2.74 2.732 7.144 7.144 0 0 1 1.028 3.755v10.076c0 .721-.247 1.347-.742 1.878a2.684 2.684 0 0 1-1.884.74H55.486c-.761 0-1.39-.247-1.884-.74a2.664 2.664 0 0 1-.742-1.878v-10.076c0-1.365.342-2.617 1.027-3.755a7.863 7.863 0 0 1 2.74-2.732c1.143-.682 2.418-1.024 3.826-1.024H83.92zm0 6.772H60.453c-.533 0-.799.246-.799.739v5.126c0 .493.247.74.742.74h23.58c.496 0 .743-.247.743-.74v-5.126a.708.708 0 0 0-.228-.512c-.19-.151-.381-.227-.572-.227z"/></svg>