<svg width="34" height="46" viewBox="0 0 34 46" fill="none" xmlns="http://www.w3.org/2000/svg">
<path d="M15.0552 2.77783L30.2218 11.7222L18.9441 17.9444L3.77747 9.00003L15.0552 2.77783Z" fill="#9199B5"/>
<path d="M15.4445 31.5554L29.4444 23.7776V12.8888L15.4445 20.6665V31.5554Z" fill="#535B77"/>
<path d="M3.77747 13.6666L18.9441 22.6111V17.9444L3.77747 9V13.6666Z" fill="white"/>
<path d="M14.667 3.55566L29.8336 12.5001V40.5L14.667 31.5555V3.55566Z" fill="#535B77"/>
<path fill-rule="evenodd" clip-rule="evenodd" d="M14.2808 2.88024C14.5232 2.74178 14.8212 2.74385 15.0617 2.88566L30.2283 11.8301C30.4654 11.9699 30.6109 12.2247 30.6109 12.5V40.4999C30.6109 40.779 30.4613 41.0368 30.2189 41.1753C29.9765 41.3137 29.6785 41.3116 29.4381 41.1698L14.2715 32.2254C14.0343 32.0856 13.8888 31.8308 13.8888 31.5555V3.55561C13.8888 3.27645 14.0384 3.0187 14.2808 2.88024ZM15.4443 4.91725V31.1112L29.0554 39.1382V12.9443L15.4443 4.91725Z" fill="#535B77"/>
<path d="M29.8336 23.7777V38.1665V40.4998L14.667 31.5554L29.8336 23.7777Z" fill="#9199B5"/>
<path fill-rule="evenodd" clip-rule="evenodd" d="M14.2808 2.88024C14.5232 2.74178 14.8212 2.74385 15.0617 2.88566L30.2283 11.8301C30.4654 11.9699 30.6109 12.2247 30.6109 12.5V40.4999C30.6109 40.779 30.4613 41.0368 30.2189 41.1753C29.9765 41.3137 29.6785 41.3116 29.4381 41.1698L14.2715 32.2254C14.0343 32.0856 13.8888 31.8308 13.8888 31.5555V3.55561C13.8888 3.27645 14.0384 3.0187 14.2808 2.88024ZM15.4443 4.91725V31.1112L29.0554 39.1382V12.9443L15.4443 4.91725Z" fill="#535B77"/>
<path d="M3.77747 13.6666L18.9441 22.6111V17.9444L3.77747 9V13.6666Z" fill="white"/>
<path d="M18.9443 22.611L30.2221 16.3888V11.7222L18.9443 17.9444V22.611Z" fill="#535B77"/>
<path d="M15.0552 2.77783L30.2218 11.7222L18.9441 17.9444L3.77747 9.00003L15.0552 2.77783Z" fill="white"/>
<path fill-rule="evenodd" clip-rule="evenodd" d="M18.167 22.6111V17.9445H19.7225V22.6111H18.167Z" fill="#535B77"/>
<path fill-rule="evenodd" clip-rule="evenodd" d="M3.10795 8.60485C3.32616 8.23484 3.80299 8.11179 4.17299 8.33L7.28409 10.1647C7.65409 10.383 7.77715 10.8598 7.55894 11.2298C7.34074 11.5998 6.8639 11.7228 6.4939 11.5046L3.3828 9.66989C3.0128 9.45169 2.88974 8.97485 3.10795 8.60485ZM9.0427 12.1048C9.26091 11.7348 9.73775 11.6118 10.1077 11.83L19.3396 17.2744C19.7096 17.4926 19.8326 17.9694 19.6144 18.3394C19.3962 18.7094 18.9194 18.8325 18.5494 18.6143L9.31755 13.1699C8.94755 12.9517 8.8245 12.4748 9.0427 12.1048Z" fill="#535B77"/>
<path fill-rule="evenodd" clip-rule="evenodd" d="M18.5687 17.2633L29.8465 11.0411L30.5979 12.4031L19.3202 18.6253L18.5687 17.2633Z" fill="#535B77"/>
<path fill-rule="evenodd" clip-rule="evenodd" d="M14.6799 2.09677C14.9207 1.96391 15.2138 1.96811 15.4507 2.10783L30.6173 11.0522C30.8545 11.1921 31 11.4469 31 11.7222V16.3888C31 16.6721 30.846 16.933 30.5979 17.0698L19.3202 23.292C19.0794 23.4249 18.7863 23.4207 18.5494 23.281L3.3828 14.3366C3.14566 14.1967 3.00012 13.9419 3.00012 13.6666V8.99997C3.00012 8.71669 3.15414 8.45581 3.40217 8.31897L14.6799 2.09677ZM4.55567 9.45915V13.2223L18.9573 21.7156L29.4444 15.9296V12.1664L15.0428 3.67316L4.55567 9.45915Z" fill="#535B77"/>
</svg>
