<svg width="29" height="46" viewBox="0 0 29 46" fill="none" xmlns="http://www.w3.org/2000/svg">
<path d="M13.0551 0.777817L28.2217 9.72222L16.9439 15.9444L1.77734 7.00001L13.0551 0.777817Z" fill="#9199B5"/>
<path d="M13.4446 29.5554L27.4445 21.7777V10.8889L13.4446 18.6666V29.5554Z" fill="#535B77"/>
<path d="M1.77734 11.6666L16.9439 20.611V15.9444L1.77734 6.99997V11.6666Z" fill="white"/>
<path d="M12.667 1.55565L27.8336 10.5001V38.4999L12.667 29.5555V1.55565Z" fill="#535B77"/>
<path fill-rule="evenodd" clip-rule="evenodd" d="M12.2809 0.880228C12.5233 0.741769 12.8213 0.743835 13.0618 0.885643L28.2284 9.83005C28.4655 9.9699 28.6111 10.2247 28.6111 10.5V38.4999C28.6111 38.779 28.4615 39.0368 28.2191 39.1752C27.9767 39.3137 27.6786 39.3116 27.4382 39.1698L12.2716 30.2254C12.0345 30.0856 11.8889 29.8308 11.8889 29.5555V1.55559C11.8889 1.27643 12.0385 1.01869 12.2809 0.880228ZM13.4445 2.91723V29.1112L27.0555 37.1382V10.9443L13.4445 2.91723Z" fill="#535B77"/>
<path d="M27.8336 21.7777V36.1666V38.4999L12.667 29.5555L27.8336 21.7777Z" fill="#9199B5"/>
<path d="M27.8336 21.7777V36.1665V38.4998L12.667 29.5554L27.8336 21.7777Z" fill="#FFD43C" fill-opacity="0.6"/>
<g filter="url(#filter0_f_8_443)">
<path d="M14.6111 11.6667H9.38472L4.88892 34.9528H14.6111V11.6667Z" fill="#FFD43C"/>
<path d="M14.6111 11.6667H19.8375L24.3333 34.9528H14.6111V11.6667Z" fill="#FFD43C"/>
<path d="M24.3333 35.4006C24.3333 38.6157 19.9805 41.2221 14.6111 41.2221C9.24168 41.2221 4.88892 38.6157 4.88892 35.4006C4.88892 35.096 4.92798 34.7969 5.00326 34.505C5.72271 31.715 9.75033 29.579 14.6111 29.579C19.9805 29.579 24.3333 32.1854 24.3333 35.4006Z" fill="#FFD43C"/>
</g>
<path fill-rule="evenodd" clip-rule="evenodd" d="M12.2809 0.880228C12.5233 0.741769 12.8213 0.743835 13.0618 0.885643L28.2284 9.83005C28.4655 9.9699 28.6111 10.2247 28.6111 10.5V38.4999C28.6111 38.779 28.4615 39.0368 28.2191 39.1752C27.9767 39.3137 27.6786 39.3116 27.4382 39.1698L12.2716 30.2254C12.0345 30.0856 11.8889 29.8308 11.8889 29.5555V1.55559C11.8889 1.27643 12.0385 1.01869 12.2809 0.880228ZM13.4445 2.91723V29.1112L27.0555 37.1382V10.9443L13.4445 2.91723Z" fill="#535B77"/>
<mask id="mask0_8_443" style="mask-type:alpha" maskUnits="userSpaceOnUse" x="4" y="11" width="21" height="31">
<path d="M14.6111 11.6667H9.38472L4.88892 34.9528H14.6111V11.6667Z" fill="#E57D43"/>
<path d="M14.6111 11.6667H19.8375L24.3333 34.9528H14.6111V11.6667Z" fill="#E57D43"/>
<path d="M24.3333 35.4006C24.3333 38.6157 19.9805 41.2221 14.6111 41.2221C9.24168 41.2221 4.88892 38.6157 4.88892 35.4006C4.88892 35.096 4.92798 34.7969 5.00326 34.505C5.72271 31.715 9.75033 29.579 14.6111 29.579C19.9805 29.579 24.3333 32.1854 24.3333 35.4006Z" fill="#E57D43"/>
</mask>
<g mask="url(#mask0_8_443)">
<path fill-rule="evenodd" clip-rule="evenodd" d="M13.4445 29.1112V1.55563H11.8889V29.5555C11.8889 29.8308 12.0345 30.0856 12.2716 30.2254L27.4382 39.1698L28.2284 37.83L13.4445 29.1112Z" fill="#E57D43"/>
</g>
<path d="M1.77734 11.6666L16.9439 20.611V15.9444L1.77734 6.99997V11.6666Z" fill="white"/>
<path d="M16.9443 20.611L28.2221 14.3888V9.72212L16.9443 15.9443V20.611Z" fill="#535B77"/>
<path d="M13.0551 0.777817L28.2217 9.72222L16.9439 15.9444L1.77734 7.00001L13.0551 0.777817Z" fill="white"/>
<path fill-rule="evenodd" clip-rule="evenodd" d="M16.167 20.6111V15.9444H17.7225V20.6111H16.167Z" fill="#535B77"/>
<path fill-rule="evenodd" clip-rule="evenodd" d="M1.10795 6.60483C1.32616 6.23483 1.80299 6.11177 2.17299 6.32998L5.28409 8.16473C5.65409 8.38294 5.77715 8.85977 5.55894 9.22978C5.34074 9.59978 4.8639 9.72283 4.4939 9.50463L1.3828 7.66988C1.0128 7.45167 0.889743 6.97483 1.10795 6.60483ZM7.0427 10.1048C7.26091 9.73481 7.73775 9.61176 8.10775 9.82996L17.3396 15.2744C17.7096 15.4926 17.8326 15.9694 17.6144 16.3394C17.3962 16.7094 16.9194 16.8325 16.5494 16.6143L7.31755 11.1699C6.94755 10.9517 6.8245 10.4748 7.0427 10.1048Z" fill="#535B77"/>
<path fill-rule="evenodd" clip-rule="evenodd" d="M16.5688 15.2633L27.8466 9.04114L28.598 10.4031L17.3203 16.6253L16.5688 15.2633Z" fill="#535B77"/>
<path fill-rule="evenodd" clip-rule="evenodd" d="M12.68 0.0967726C12.9208 -0.0360945 13.2139 -0.0318916 13.4508 0.107826L28.6174 9.05223C28.8546 9.19208 29.0001 9.44688 29.0001 9.72218V14.3888C29.0001 14.6721 28.8461 14.933 28.5981 15.0698L17.3203 21.292C17.0795 21.4249 16.7864 21.4207 16.5495 21.281L1.38292 12.3366C1.14578 12.1967 1.00024 11.9419 1.00024 11.6666V6.99997C1.00024 6.71669 1.15426 6.45581 1.40229 6.31897L12.68 0.0967726ZM2.55579 7.45915V11.2223L16.9575 19.7156L27.4446 13.9296V10.1664L13.0429 1.67316L2.55579 7.45915Z" fill="#535B77"/>
<defs>
<filter id="filter0_f_8_443" x="0.888916" y="7.66667" width="27.4443" height="37.5554" filterUnits="userSpaceOnUse" color-interpolation-filters="sRGB">
<feFlood flood-opacity="0" result="BackgroundImageFix"/>
<feBlend mode="normal" in="SourceGraphic" in2="BackgroundImageFix" result="shape"/>
<feGaussianBlur stdDeviation="2" result="effect1_foregroundBlur_8_443"/>
</filter>
</defs>
</svg>
