<svg width="28" height="40" viewBox="0 0 28 40" fill="none" xmlns="http://www.w3.org/2000/svg">
<path d="M11.667 1.55565L26.8336 10.5001V38.4999L11.667 29.5555V1.55565Z" fill="#E55E43"/>
<path d="M11.667 1.55565L26.8336 10.5001V38.4999L11.667 29.5555V1.55565Z" fill="#9199B5"/>
<path fill-rule="evenodd" clip-rule="evenodd" d="M11.2809 0.880228C11.5233 0.741769 11.8213 0.743835 12.0618 0.885643L27.2284 9.83005C27.4655 9.9699 27.6111 10.2247 27.6111 10.5V38.4999C27.6111 38.779 27.4615 39.0368 27.2191 39.1752C26.9767 39.3137 26.6786 39.3116 26.4382 39.1698L11.2716 30.2254C11.0345 30.0856 10.8889 29.8308 10.8889 29.5555V1.55559C10.8889 1.27643 11.0385 1.01869 11.2809 0.880228ZM12.4445 2.91723V29.1112L26.0555 37.1382V10.9443L12.4445 2.91723Z" fill="#535B77"/>
<path d="M12.0551 0.777817L27.2217 9.72222L15.9439 15.9444L0.777344 7.00001L12.0551 0.777817Z" fill="#9199B5"/>
<path d="M15.9443 20.611L27.2221 14.3888V9.72212L15.9443 15.9443V20.611Z" fill="#535B77"/>
<path d="M0.777344 11.6666L15.9439 20.611V15.9444L0.777344 6.99997V11.6666Z" fill="#9199B5"/>
<path d="M12.0551 0.777817L27.2217 9.72222L15.9439 15.9444L0.777344 7.00001L12.0551 0.777817Z" fill="white"/>
<path d="M12.4446 29.5554L26.4445 21.7777V10.8889L12.4446 18.6666V29.5554Z" fill="#535B77"/>
<path d="M0.777344 11.6666L15.9439 20.611V15.9444L0.777344 6.99997V11.6666Z" fill="white"/>
<path fill-rule="evenodd" clip-rule="evenodd" d="M11.68 0.0967726C11.9208 -0.0360945 12.2139 -0.0318916 12.4508 0.107826L27.6174 9.05223C27.8546 9.19208 28.0001 9.44687 28.0001 9.72218V14.3888C28.0001 14.6721 27.8461 14.933 27.5981 15.0698L16.3203 21.292C16.0795 21.4249 15.7864 21.4207 15.5495 21.281L0.382921 12.3366C0.145783 12.1967 0.000244141 11.9419 0.000244141 11.6666V6.99997C0.000244141 6.71669 0.154261 6.45581 0.402293 6.31897L11.68 0.0967726ZM1.55579 7.45915V11.2223L15.9575 19.7156L26.4446 13.9296V10.1664L12.0429 1.67316L1.55579 7.45915Z" fill="#535B77"/>
<path fill-rule="evenodd" clip-rule="evenodd" d="M15.167 20.611V15.9444H16.7225V20.611H15.167Z" fill="#535B77"/>
<path fill-rule="evenodd" clip-rule="evenodd" d="M0.107949 6.60474C0.326156 6.23474 0.802993 6.11168 1.17299 6.32989L4.28409 8.16464C4.65409 8.38285 4.77715 8.85968 4.55894 9.22969C4.34074 9.59969 3.8639 9.72274 3.4939 9.50454L0.3828 7.66979C0.0127975 7.45158 -0.110257 6.97474 0.107949 6.60474ZM6.0427 10.1047C6.26091 9.73472 6.73775 9.61167 7.10775 9.82987L16.3396 15.2743C16.7096 15.4925 16.8326 15.9693 16.6144 16.3393C16.3962 16.7093 15.9194 16.8324 15.5494 16.6142L6.31755 11.1698C5.94755 10.9516 5.8245 10.4747 6.0427 10.1047Z" fill="#535B77"/>
<path fill-rule="evenodd" clip-rule="evenodd" d="M15.5688 15.2633L26.8466 9.04115L27.598 10.4032L16.3203 16.6254L15.5688 15.2633Z" fill="#535B77"/>
</svg>
