<svg width="104" height="24" viewBox="0 0 104 24" fill="none" xmlns="http://www.w3.org/2000/svg">
<g clip-path="url(#clip0_76_320)">
<g clip-path="url(#clip1_76_320)">
<path d="M11 0V3H13V0H11ZM4.22266 2.80859L2.80859 4.22266L4.92969 6.34375L6.34375 4.92969L4.22266 2.80859ZM19.7773 2.80859L17.6562 4.92969L19.0703 6.34375L21.1914 4.22266L19.7773 2.80859ZM12 5C8.14585 5 5 8.14585 5 12C5 15.8541 8.14585 19 12 19C15.8541 19 19 15.8541 19 12C19 8.14585 15.8541 5 12 5ZM12 7C14.7733 7 17 9.22673 17 12C17 14.7733 14.7733 17 12 17C9.22673 17 7 14.7733 7 12C7 9.22673 9.22673 7 12 7ZM0 11V13H3V11H0ZM21 11V13H24V11H21ZM4.92969 17.6562L2.80859 19.7773L4.22266 21.1914L6.34375 19.0703L4.92969 17.6562ZM19.0703 17.6562L17.6562 19.0703L19.7773 21.1914L21.1914 19.7773L19.0703 17.6562ZM11 21V24H13V21H11Z" fill="#535B77"/>
</g>
<g clip-path="url(#clip2_76_320)">
<path d="M91 0V3H93V0H91ZM84.2227 2.80859L82.8086 4.22266L84.9297 6.34375L86.3438 4.92969L84.2227 2.80859ZM99.7773 2.80859L97.6562 4.92969L99.0703 6.34375L101.191 4.22266L99.7773 2.80859ZM92 5C88.1459 5 85 8.14585 85 12C85 15.8541 88.1459 19 92 19C95.8541 19 99 15.8541 99 12C99 8.14585 95.8541 5 92 5ZM92 7C94.7733 7 97 9.22673 97 12C97 14.7733 94.7733 17 92 17C89.2267 17 87 14.7733 87 12C87 9.22673 89.2267 7 92 7ZM80 11V13H83V11H80ZM101 11V13H104V11H101ZM84.9297 17.6562L82.8086 19.7773L84.2227 21.1914L86.3438 19.0703L84.9297 17.6562ZM99.0703 17.6562L97.6562 19.0703L99.7773 21.1914L101.191 19.7773L99.0703 17.6562ZM91 21V24H93V21H91Z" fill="#535B77"/>
</g>
<path d="M62.1599 13.0687C62.0156 12.9241 61.8346 12.8216 61.6364 12.772C61.4383 12.7225 61.2303 12.7278 61.0349 12.7875C59.67 13.1995 58.2189 13.2336 56.8362 12.8862C55.4535 12.5387 54.1909 11.8226 53.1829 10.8143C52.175 9.80597 51.4594 8.54311 51.1125 7.16024C50.7655 5.77737 50.8002 4.32629 51.2127 2.96156C51.2729 2.76609 51.2787 2.55792 51.2294 2.35942C51.1801 2.16092 51.0777 1.97962 50.933 1.835C50.7884 1.69038 50.6071 1.58792 50.4086 1.53864C50.2101 1.48936 50.0019 1.49512 49.8065 1.55531C47.7537 2.18624 45.9523 3.44864 44.6587 5.16281C43.5274 6.66646 42.8375 8.45561 42.6664 10.3295C42.4954 12.2034 42.8499 14.0879 43.6902 15.7715C44.5305 17.4552 45.8234 18.8713 47.4237 19.8611C49.024 20.8509 50.8685 21.3751 52.7502 21.375C54.9471 21.3814 57.0855 20.6671 58.8374 19.3416C60.5507 18.0466 61.8118 16.2442 62.4412 14.1909C62.5003 13.9959 62.5054 13.7886 62.4558 13.5909C62.4063 13.3933 62.304 13.2128 62.1599 13.0687ZM57.4837 17.5444C55.9673 18.6859 54.0896 19.2414 52.1962 19.1086C50.3028 18.9757 48.521 18.1635 47.1789 16.8213C45.8368 15.4792 45.0245 13.6975 44.8917 11.8041C44.7588 9.91065 45.3143 8.03296 46.4559 6.51656C47.0565 5.72199 47.801 5.04719 48.6505 4.52718C48.6337 4.76718 48.6252 5.00812 48.6252 5.25C48.6282 7.9344 49.6959 10.508 51.5941 12.4062C53.4922 14.3043 56.0658 15.372 58.7502 15.375C58.9921 15.375 59.233 15.3666 59.473 15.3497C58.9533 16.1994 58.2784 16.9439 57.4837 17.5444Z" fill="#535B77"/>
</g>
<defs>
<clipPath id="clip0_76_320">
<rect width="104" height="24" fill="white"/>
</clipPath>
<clipPath id="clip1_76_320">
<rect width="24" height="24" fill="white"/>
</clipPath>
<clipPath id="clip2_76_320">
<rect width="24" height="24" fill="white" transform="translate(80)"/>
</clipPath>
</defs>
</svg>
