<svg width="24" height="24" viewBox="0 0 24 24" fill="none" xmlns="http://www.w3.org/2000/svg">
<g clip-path="url(#clip0_3_39)">
<path d="M10.9998 0V3H12.9998V0H10.9998ZM4.22241 2.80859L2.80835 4.22266L4.92944 6.34375L6.34351 4.92969L4.22241 2.80859ZM19.7771 2.80859L17.656 4.92969L19.0701 6.34375L21.1912 4.22266L19.7771 2.80859ZM11.9998 5C8.14561 5 4.99976 8.14585 4.99976 12C4.99976 15.8541 8.14561 19 11.9998 19C15.8539 19 18.9998 15.8541 18.9998 12C18.9998 8.14585 15.8539 5 11.9998 5ZM11.9998 7C14.773 7 16.9998 9.22673 16.9998 12C16.9998 14.7733 14.773 17 11.9998 17C9.22649 17 6.99976 14.7733 6.99976 12C6.99976 9.22673 9.22649 7 11.9998 7ZM-0.000244141 11V13H2.99976V11H-0.000244141ZM20.9998 11V13H23.9998V11H20.9998ZM4.92944 17.6562L2.80835 19.7773L4.22241 21.1914L6.34351 19.0703L4.92944 17.6562ZM19.0701 17.6562L17.656 19.0703L19.7771 21.1914L21.1912 19.7773L19.0701 17.6562ZM10.9998 21V24H12.9998V21H10.9998Z" fill="#535B77"/>
</g>
<defs>
<clipPath id="clip0_3_39">
<rect width="24" height="24" fill="white" transform="translate(-0.000244141)"/>
</clipPath>
</defs>
</svg>
