<svg width="24" height="24" viewBox="0 0 24 24" fill="none" xmlns="http://www.w3.org/2000/svg">
<path d="M22.1597 13.0687C22.0154 12.9241 21.8344 12.8216 21.6362 12.772C21.438 12.7225 21.2301 12.7278 21.0347 12.7875C19.6698 13.1995 18.2187 13.2336 16.836 12.8862C15.4532 12.5387 14.1906 11.8226 13.1827 10.8143C12.1747 9.80597 11.4592 8.54311 11.1122 7.16024C10.7653 5.77737 10.7999 4.32629 11.2125 2.96156C11.2727 2.76609 11.2784 2.55792 11.2292 2.35942C11.1799 2.16092 11.0774 1.97962 10.9328 1.835C10.7882 1.69038 10.6069 1.58792 10.4084 1.53864C10.2099 1.48936 10.0017 1.49512 9.80624 1.55531C7.75348 2.18624 5.95207 3.44864 4.65843 5.16281C3.52715 6.66646 2.83727 8.45561 2.6662 10.3295C2.49513 12.2034 2.84964 14.0879 3.68995 15.7715C4.53026 17.4552 5.82312 18.8713 7.42346 19.8611C9.0238 20.8509 10.8683 21.3751 12.75 21.375C14.9469 21.3814 17.0852 20.6671 18.8372 19.3416C20.5504 18.0466 21.8115 16.2442 22.4409 14.1909C22.5001 13.9959 22.5051 13.7886 22.4556 13.5909C22.4061 13.3933 22.3038 13.2128 22.1597 13.0687ZM17.4834 17.5444C15.967 18.6859 14.0893 19.2414 12.1959 19.1086C10.3025 18.9757 8.52078 18.1635 7.17865 16.8213C5.83651 15.4792 5.02428 13.6975 4.89143 11.8041C4.75858 9.91065 5.31405 8.03296 6.45561 6.51656C7.0563 5.72199 7.80074 5.04719 8.6503 4.52718C8.63343 4.76718 8.62499 5.00812 8.62499 5.25C8.62797 7.9344 9.69566 10.508 11.5938 12.4062C13.492 14.3043 16.0656 15.372 18.75 15.375C18.9919 15.375 19.2328 15.3666 19.4728 15.3497C18.953 16.1994 18.2782 16.9439 17.4834 17.5444Z" fill="#535B77"/>
</svg>
