<svg width="34" height="46" viewBox="0 0 34 46" fill="none" xmlns="http://www.w3.org/2000/svg">
<path d="M29.3931 23.7777V38.1665V40.4998L14.7682 31.5554L29.3931 23.7777Z" fill="#9199B5"/>
<path d="M29.3931 23.7777V38.1665V40.4998L14.7682 31.5554L29.3931 23.7777Z" fill="#FFD43C" fill-opacity="0.6"/>
<mask id="mask0_69_131" style="mask-type:alpha" maskUnits="userSpaceOnUse" x="4" y="14" width="27" height="32">
<path d="M18.9464 23.5L4 14.5V46H30.0357V17L18.9464 23.5Z" fill="#D9D9D9"/>
</mask>
<g mask="url(#mask0_69_131)">
<g filter="url(#filter0_f_69_131)">
<path d="M16.6428 13.6666H11.6031L7.26782 36.9527H16.6428V13.6666Z" fill="#FFD43C"/>
<path d="M16.6428 13.6666H21.6825L26.0177 36.9527H16.6428V13.6666Z" fill="#FFD43C"/>
<path d="M26.0177 37.4005C26.0177 40.6157 21.8204 43.2221 16.6428 43.2221C11.4651 43.2221 7.26782 40.6157 7.26782 37.4005C7.26782 37.096 7.30549 36.7969 7.37808 36.5049C8.07184 33.715 11.9556 31.579 16.6428 31.579C21.8204 31.579 26.0177 34.1854 26.0177 37.4005Z" fill="#FFD43C"/>
</g>
</g>
<mask id="mask1_69_131" style="mask-type:alpha" maskUnits="userSpaceOnUse" x="4" y="14" width="27" height="32">
<path d="M18.9464 23.5L4 14.5V46H30.0357V17L18.9464 23.5Z" fill="#D9D9D9"/>
</mask>
<g mask="url(#mask1_69_131)">
<path fill-rule="evenodd" clip-rule="evenodd" d="M14.3958 2.88024C14.6296 2.74178 14.9169 2.74385 15.1488 2.88566L29.7737 11.8301C30.0024 11.9699 30.1428 12.2247 30.1428 12.5V40.4999C30.1428 40.779 29.9985 41.0368 29.7647 41.1753C29.531 41.3137 29.2436 41.3116 29.0118 41.1698L14.3868 32.2254C14.1582 32.0856 14.0178 31.8308 14.0178 31.5555V3.55561C14.0178 3.27645 14.1621 3.0187 14.3958 2.88024ZM15.5178 4.91725V31.1112L28.6428 39.1382V12.9443L15.5178 4.91725Z" fill="#535B77"/>
</g>
<mask id="mask2_69_131" style="mask-type:alpha" maskUnits="userSpaceOnUse" x="4" y="14" width="27" height="32">
<path d="M18.9464 23.5L4 14.5V46H31V16.5L18.9464 23.5Z" fill="#D9D9D9"/>
</mask>
<g mask="url(#mask2_69_131)">
<mask id="mask3_69_131" style="mask-type:alpha" maskUnits="userSpaceOnUse" x="7" y="13" width="20" height="31">
<path d="M16.6428 13.6666H11.6031L7.26782 36.9527H16.6428V13.6666Z" fill="#E57D43"/>
<path d="M16.6428 13.6666H21.6825L26.0177 36.9527H16.6428V13.6666Z" fill="#E57D43"/>
<path d="M26.0177 37.4005C26.0177 40.6157 21.8204 43.2221 16.6428 43.2221C11.4651 43.2221 7.26782 40.6157 7.26782 37.4005C7.26782 37.096 7.30549 36.7969 7.37808 36.5049C8.07184 33.715 11.9556 31.579 16.6428 31.579C21.8204 31.579 26.0177 34.1854 26.0177 37.4005Z" fill="#E57D43"/>
</mask>
<g mask="url(#mask3_69_131)">
<path fill-rule="evenodd" clip-rule="evenodd" d="M15.5178 31.1111V3.55554H14.0178V31.5554C14.0178 31.8307 14.1582 32.0855 14.3868 32.2254L29.0118 41.1698L29.7737 39.8299L15.5178 31.1111Z" fill="#E57D43"/>
</g>
</g>
<defs>
<filter id="filter0_f_69_131" x="3.26782" y="9.66663" width="26.7499" height="37.5554" filterUnits="userSpaceOnUse" color-interpolation-filters="sRGB">
<feFlood flood-opacity="0" result="BackgroundImageFix"/>
<feBlend mode="normal" in="SourceGraphic" in2="BackgroundImageFix" result="shape"/>
<feGaussianBlur stdDeviation="2" result="effect1_foregroundBlur_69_131"/>
</filter>
</defs>
</svg>
