<svg width="23" height="23" viewBox="0 0 23 23" fill="none" xmlns="http://www.w3.org/2000/svg">
<path d="M16.0735 14.1447H15.0576L14.6976 13.7975C15.9577 12.3316 16.7164 10.4285 16.7164 8.35821C16.7164 3.7419 12.9745 0 8.35821 0C3.7419 0 0 3.7419 0 8.35821C0 12.9745 3.7419 16.7164 8.35821 16.7164C10.4285 16.7164 12.3316 15.9577 13.7975 14.6976L14.1447 15.0576V16.0735L20.574 22.49L22.49 20.574L16.0735 14.1447ZM8.35821 14.1447C5.15637 14.1447 2.57176 11.56 2.57176 8.35821C2.57176 5.15637 5.15637 2.57176 8.35821 2.57176C11.56 2.57176 14.1447 5.15637 14.1447 8.35821C14.1447 11.56 11.56 14.1447 8.35821 14.1447Z" fill="#535B77"/>
</svg>
