<svg width="16" height="21" viewBox="0 0 16 21" fill="none" xmlns="http://www.w3.org/2000/svg">
<path d="M0.5 1.375C0.5 1.07663 0.618526 0.790483 0.829505 0.579505C1.04048 0.368526 1.32663 0.25 1.625 0.25H14.375C14.6734 0.25 14.9595 0.368526 15.1705 0.579505C15.3815 0.790483 15.5 1.07663 15.5 1.375C15.5 1.67337 15.3815 1.95952 15.1705 2.1705C14.9595 2.38147 14.6734 2.5 14.375 2.5H1.625C1.32663 2.5 1.04048 2.38147 0.829505 2.1705C0.618526 1.95952 0.5 1.67337 0.5 1.375ZM8.795 5.83L14.42 11.455C14.5244 11.5594 14.6072 11.6833 14.6637 11.8197C14.7202 11.9562 14.7493 12.1024 14.7493 12.25C14.7493 12.3976 14.7202 12.5438 14.6637 12.6803C14.6072 12.8167 14.5244 12.9406 14.42 13.045C14.3156 13.1494 14.1917 13.2322 14.0553 13.2887C13.9188 13.3452 13.7726 13.3743 13.625 13.3743C13.4774 13.3743 13.3312 13.3452 13.1947 13.2887C13.0583 13.2322 12.9344 13.1494 12.83 13.045L9.125 9.3415V19.375C9.125 19.6734 9.00647 19.9595 8.79549 20.1705C8.58452 20.3815 8.29837 20.5 8 20.5C7.70163 20.5 7.41548 20.3815 7.2045 20.1705C6.99353 19.9595 6.875 19.6734 6.875 19.375V9.3415L3.17 13.045C2.95915 13.2558 2.67318 13.3743 2.375 13.3743C2.07682 13.3743 1.79085 13.2558 1.58 13.045C1.36915 12.8342 1.2507 12.5482 1.2507 12.25C1.2507 12.1024 1.27978 11.9562 1.33628 11.8197C1.39278 11.6833 1.4756 11.5594 1.58 11.455L7.205 5.83C7.30935 5.7255 7.43327 5.6426 7.56969 5.58604C7.7061 5.52948 7.85233 5.50037 8 5.50037C8.14767 5.50037 8.2939 5.52948 8.43032 5.58604C8.56673 5.6426 8.69065 5.7255 8.795 5.83Z" fill="#535B77"/>
</svg>
